# xmcd
#
# Track frame offsets: 
#        150
#        24505
#        48907
#        84580
#
# Disc length: 4440 seconds
#
# Revision: 6
# Processed by: cddbd v1.5.1PL2 Copyright (c) Steve Scherf et al.
# Submitted via: ExactAudioCopy v0.95b3
#
DISCID=25115604
DTITLE=MISIA - 夜不成眠都為你
DYEAR=2002
DGENRE=Vocal
TTITLE0=夜不成眠都為你
TTITLE1=Shining Star
TTITLE2=夜不成眠都為你(Instrumental)
TTITLE3=DATA
EXTD=YEAR: 2002 ID3G: 28
EXTT0=
EXTT1=
EXTT2=
EXTT3=
PLAYORDER=
